<svg data-v-0dd9719b="" version="1.0" xmlns="http://www.w3.org/2000/svg" xmlns:xlink="http://www.w3.org/1999/xlink" width="100%" height="100%" viewBox="0 0 340.000000 250.000000" preserveAspectRatio="xMidYMid meet" color-interpolation-filters="sRGB" style="margin: auto;"> <rect data-v-0dd9719b="" x="0" y="0" width="100%" height="100%" fill="#fff" fill-opacity="1" class="background"></rect> <rect data-v-0dd9719b="" x="0" y="0" width="100%" height="100%" fill="url(#watermark)" fill-opacity="1" class="watermarklayer"></rect> <g data-v-0dd9719b="" fill="#3e3a39" class="icon-text-wrapper icon-svg-group iconsvg" transform="translate(73.19999694824219,81.43207931518555)"><g class="iconsvg-imagesvg" transform="translate(0,0)"><g><rect fill="#3e3a39" fill-opacity="0" stroke-width="2" x="0" y="0" width="60.00000000000001" height="87.13584478201517" class="image-rect"></rect> <svg x="0" y="0" width="60.00000000000001" height="87.13584478201517" filtersec="colorsb4655705448" class="image-svg-svg primary" style="overflow: visible;"><svg xmlns="http://www.w3.org/2000/svg" viewBox="-0.00528666190803051 0 33.120574951171875 48.099998474121094"><g><g><g><g><path d="M32.2 48.1H.91a.91.91 0 0 1-.91-.91V.91A.91.91 0 0 1 .91 0H32.2a.91.91 0 0 1 .91.91v46.28a.91.91 0 0 1-.91.91zM1.83 46.28h29.46V1.83H1.83z" fill="#3e3a39"></path></g><g><path d="M18.65 23a.91.91 0 0 1-.65-1.54l11.83-10.67H12.2v4.77a.91.91 0 0 1-.91.91H.91a.91.91 0 0 1 0-1.83h9.46V9.87a.91.91 0 0 1 .92-.87H32.2a.91.91 0 0 1 .61 1.59L19.26 22.81a.91.91 0 0 1-.61.19z" fill="#3e3a39"></path></g><g><path d="M21.82 39.14H.91a.91.91 0 0 1-.61-1.59l14.2-12.87A.91.91 0 1 1 15.73 26L3.28 37.31h17.63v-4.76a.91.91 0 0 1 .91-.91H32.2a.91.91 0 0 1 0 1.83h-9.46v4.77a.91.91 0 0 1-.92.9z" fill="#3e3a39"></path></g></g></g></g></svg></svg> <!----></g></g> <g transform="translate(67,14.553176879882812)"><g data-gra="path-name" fill-rule="" class="tp-name iconsvg-namesvg"><g transform="scale(1)"><g><path d="M20.69-22.76L20.69-27.33 1.56-27.33 1.56-22.21 14.33-22.21 0.78-4.57 0.78 0 20.89 0 20.89-5.15 7.22-5.15ZM24.32 0L29.59 0 29.59-11.79 43.61-11.79 43.61 0 48.88 0 48.88-27.33 43.61-27.33 43.61-16.79 29.59-16.79 29.59-27.33 24.32-27.33ZM66.33-10.93L75.89-27.33 69.92-27.33 63.91-16.4 57.78-27.33 51.73-27.33 61.06-10.93 61.06 0 66.33 0ZM90.18-27.33L83.5-27.33 73.71 0 79.41 0 81.12-5.08 92.99-5.08 94.83 0 100.92 0ZM82.49-9.17L86.67-21.67 87.06-21.67 91.55-9.17ZM103.77 0L108.88 0 108.88-18.58 109.08-18.58 122.23 0 127.38 0 127.38-27.33 122.35-27.33 122.35-8.51 122.15-8.51 108.96-27.33 103.77-27.33Z" transform="translate(-0.7799999713897705, 27.329999923706055)"></path></g> <!----> <!----> <!----> <!----> <!----> <!----> <g data-gra="path-name-1" fill="#3e3a39" transform="translate(0,30.329999923706055)"><g transform="scale(0.98086)"><path d="M0.28-28.24L0.28-23.6 8.8-23.6 8.8 0 14.24 0 14.24-23.6 22.72-23.6 22.72-28.24ZM25.74 0L31.19 0 31.19-9.97 37.52-9.97 42.81 0 48.94 0 42.36-10.89C45.79-12.59 47.33-16.3 47.33-19.33 47.33-25.02 43.78-28.24 37.4-28.24L25.74-28.24ZM31.19-14.48L31.19-23.48 36.8-23.48C40.43-23.48 42.2-21.99 42.2-19.21 42.2-16.22 40.11-14.48 36.84-14.48ZM66.41-28.24L59.51-28.24 49.39 0 55.28 0 57.05-5.25 69.32-5.25 71.21 0 77.51 0ZM58.46-9.48L62.78-22.39 63.18-22.39 67.82-9.48ZM80.17-28.24L80.17 0 91.83 0C100.43 0 104.18-6.13 104.18-14.12 104.18-22.15 100.43-28.24 91.83-28.24ZM90.06-22.96C94.86-22.96 98.45-21.1 98.45-14.12 98.45-7.1 94.9-5.33 90.1-5.33L85.66-5.33 85.66-22.96ZM108.45 0L129.35 0 129.35-5.33 113.94-5.33 113.94-11.94 128.06-11.94 128.06-16.95 113.94-16.95 113.94-22.96 129.35-22.96 129.35-28.24 108.45-28.24Z" transform="translate(-0.2800000011920929, 28.239999771118164)"></path></g></g></g></g> <!----></g></g><defs v-gra="od"></defs></svg>